<svg width="256" height="256" viewBox="0 0 256 256" preserveAspectRatio="xMinYMin meet" xmlns="http://www.w3.org/2000/svg" xmlns:xlink="http://www.w3.org/1999/xlink">
  <defs>
    <linearGradient gradientUnits="userSpaceOnUse" x1="-819.2" x2="819.2" spreadMethod="pad" gradientTransform="matrix(0.1562347412109375 0 0 0.243743896484375 127.15 -240.65)" id="gradient0">
      <stop offset="0.44313725490196076" stop-color="#522550"/>
      <stop offset="1" stop-color="#152966"/>
    </linearGradient>
  </defs>
  <g>
    <path stroke="none" fill="url(#gradient0)" d="M0 0 L256 0 256 256 0 256 0 0"/>
    <path stroke="none" fill="#ffffff" d="M185.45 66.45 Q188.75 68.7 191.9 71.7 203 82.95 203 98.85 L203 99.15 Q202.85 120 187.85 140.4 L185.45 143.55 Q166.55 167.55 128 195.6 L124.95 193.35 Q86.2 164.8 68.15 140.4 53.15 120 53 99.15 L53 98.85 Q53 82.95 64.1 71.7 75.5 60.45 91.4 60.45 100.45 60.45 107.95 64.1 113.6 66.85 118.4 71.7 123.95 77.1 128 84.9 132.05 77.1 137.6 71.7 L140.8 68.8 Q150.9 60.45 164.6 60.45 176.3 60.45 185.45 66.45 M118.4 76.7 Q114.7 73 110.55 70.5 L127 111 112 139 129 157 128.3 185.2 139 159 129 136 140 102 140.65 73.95 Q139.1 75.2 137.6 76.7 132.05 82.1 128 89.9 123.95 82.1 118.4 76.7"/>
    <path stroke="none" fill="#351734" d="M118.4 76.7 Q123.95 82.1 128 89.9 132.05 82.1 137.6 76.7 139.1 75.2 140.65 73.95 L140 102 129 136 139 159 128.3 185.2 129 157 112 139 127 111 110.55 70.5 Q114.7 73 118.4 76.7"/>
  </g>
</svg>